<svg width="284" height="284" viewBox="0 0 284 284" fill="none" xmlns="http://www.w3.org/2000/svg">
<path fill-rule="evenodd" clip-rule="evenodd" d="M142 47.3334C89.717 47.3334 47.3334 89.7171 47.3334 142C47.3334 194.283 89.717 236.667 142 236.667C194.283 236.667 236.667 194.283 236.667 142C236.667 89.7171 194.283 47.3334 142 47.3334ZM23.6667 142C23.6667 76.6464 76.6463 23.6667 142 23.6667C207.353 23.6667 260.333 76.6464 260.333 142C260.333 207.353 207.353 260.333 142 260.333C76.6463 260.333 23.6667 207.353 23.6667 142ZM133.633 103.034C129.012 98.4129 129.012 90.9205 133.633 86.2993C138.254 81.6781 145.746 81.6781 150.367 86.2993L197.701 133.633C202.322 138.254 202.322 145.747 197.701 150.367L150.367 197.701C145.746 202.322 138.254 202.322 133.633 197.701C129.012 193.08 129.012 185.587 133.633 180.966L160.765 153.833H94.6667C88.1314 153.833 82.8334 148.536 82.8334 142C82.8334 135.465 88.1314 130.167 94.6667 130.167H160.765L133.633 103.034Z" fill="white"/>
</svg>
