<svg width="312" height="312" viewBox="0 0 312 312" fill="none" xmlns="http://www.w3.org/2000/svg">
<path fill-rule="evenodd" clip-rule="evenodd" d="M156 52C98.5623 52 52 98.5623 52 156C52 213.438 98.5623 260 156 260C213.438 260 260 213.438 260 156C260 98.5623 213.438 52 156 52ZM26 156C26 84.2029 84.2029 26 156 26C227.796 26 286 84.2029 286 156C286 227.796 227.796 286 156 286C84.2029 286 26 227.796 26 156ZM165.192 94.8076C170.269 99.8845 170.269 108.116 165.192 113.192L135.385 143H208C215.18 143 221 148.82 221 156C221 163.18 215.18 169 208 169H135.385L165.192 198.808C170.269 203.884 170.269 212.116 165.192 217.192C160.116 222.269 151.884 222.269 146.808 217.192L94.8076 165.192C89.7308 160.116 89.7308 151.884 94.8076 146.808L146.808 94.8076C151.884 89.7308 160.116 89.7308 165.192 94.8076Z" fill="white"/>
</svg>
