<svg width="312" height="312" viewBox="0 0 312 312" fill="none" xmlns="http://www.w3.org/2000/svg">
<path fill-rule="evenodd" clip-rule="evenodd" d="M52 156C52 213.438 98.5624 260 156 260C213.438 260 260 213.438 260 156C260 98.5624 213.438 52.0003 156 52.0003C98.5624 52.0003 52 98.5624 52 156ZM156 286C84.203 286 26 227.797 26 156C26 84.2039 84.203 26.0003 156 26.0003C227.796 26.0003 286 84.2039 286 156C286 227.797 227.796 286 156 286ZM94.8076 146.808C99.8845 141.731 108.116 141.731 113.192 146.808L143 176.616V104C143 96.8204 148.82 91.0003 156 91.0003C163.18 91.0003 169 96.8204 169 104L169 176.616L198.808 146.808C203.884 141.731 212.116 141.731 217.192 146.808C222.269 151.884 222.269 160.116 217.192 165.193L165.192 217.193C160.116 222.269 151.884 222.269 146.808 217.193L94.8076 165.193C89.7308 160.116 89.7308 151.884 94.8076 146.808Z" fill="white"/>
</svg>
