<svg width="220" height="184" viewBox="0 0 220 184" fill="none" xmlns="http://www.w3.org/2000/svg">
<g clip-path="url(#clip0_14_92)">
<path d="M122.265 162.245H96.62C68.745 162.245 45.33 142.175 40.87 115.415L31.95 66.3551C31.95 63.0101 31.95 60.7801 34.18 58.5501C36.41 56.3201 38.64 55.2051 41.985 55.2051H176.9C180.245 55.2051 182.475 56.3201 184.705 58.5501C186.935 60.7801 186.935 64.1251 186.935 66.3551L178.015 115.415C173.555 143.29 150.14 162.245 122.265 162.245ZM44.215 67.4701L52.02 114.3C55.365 136.6 74.32 152.21 96.62 152.21H122.265C144.565 152.21 163.52 136.6 166.865 114.3L174.67 67.4701H44.215Z" fill="white"/>
<path d="M175.785 74.1601C181.36 68.5851 193.625 64.1251 203.66 74.1601C210.35 80.8501 211.465 94.2302 204.775 104.265C200.315 112.07 192.51 116.53 183.59 116.53C180.245 116.53 176.9 115.415 172.44 114.3L175.785 103.15C186.935 106.495 192.51 102.035 194.74 97.5751C198.085 92.0001 198.085 84.1951 194.74 80.8501C189.165 75.2751 184.705 79.7351 182.475 80.8501L175.785 74.1601Z" fill="white"/>
<path d="M85.47 48.5152C83.24 48.5152 82.125 47.4002 81.01 46.2852C81.01 45.1702 77.665 40.7102 77.665 34.0202C77.665 27.3302 81.01 21.7552 81.01 21.7552C81.01 21.7552 83.24 18.4102 83.24 15.0652C83.24 11.7202 81.01 8.37517 81.01 8.37517C79.895 6.14517 79.895 2.80018 83.24 0.570176C85.47 -0.544824 88.815 -0.544826 91.045 2.80017C91.045 3.91517 94.39 8.37518 94.39 15.0652C94.39 21.7552 91.045 27.3302 91.045 27.3302C91.045 27.3302 88.815 30.6752 88.815 34.0202C88.815 37.3652 91.045 40.7102 91.045 40.7102C92.16 42.9402 92.16 46.2852 88.815 48.5152C86.585 48.5152 86.585 48.5152 85.47 48.5152Z" fill="white"/>
<path d="M110 48.5152C107.77 48.5152 106.655 47.4002 105.54 46.2852C105.54 46.2852 102.195 40.7102 102.195 34.0202C102.195 27.3302 105.54 21.7552 105.54 21.7552C105.54 21.7552 107.77 18.4102 107.77 15.0652C107.77 11.7202 105.54 8.37517 105.54 8.37517C104.425 6.14517 104.425 2.80018 107.77 0.570176C110 -0.544824 113.345 -0.544826 115.575 2.80017C115.575 3.91517 118.92 8.37518 118.92 15.0652C118.92 21.7552 115.575 27.3302 115.575 27.3302C115.575 27.3302 113.345 30.6752 113.345 34.0202C113.345 37.3652 115.575 40.7102 115.575 40.7102C116.69 42.9402 116.69 46.2852 113.345 48.5152C112.23 48.5152 111.115 48.5152 110 48.5152Z" fill="white"/>
<path d="M134.53 48.5151C132.3 48.5151 131.185 47.4001 130.07 46.2851C130.07 46.2851 126.725 40.7101 126.725 34.0201C126.725 27.3301 130.07 21.7551 130.07 21.7551C130.07 21.7551 132.3 18.4101 132.3 15.0651C132.3 11.7201 130.07 8.37509 130.07 8.37509C128.955 6.14509 128.955 2.80009 132.3 0.570091C135.645 -1.65991 137.875 -0.544912 140.105 2.80009C140.105 3.91509 143.45 8.37509 143.45 15.0651C143.45 21.7551 140.105 27.3301 140.105 27.3301C140.105 27.3301 137.875 30.6751 137.875 34.0201C137.875 37.3651 140.105 40.7101 140.105 40.7101C141.22 42.9401 141.22 46.2851 137.875 48.5151C136.76 48.5151 135.645 48.5151 134.53 48.5151Z" fill="white"/>
<path d="M182.475 184.545H37.525C34.18 184.545 31.95 182.315 31.95 178.97C31.95 175.625 34.18 173.395 37.525 173.395H182.475C185.82 173.395 188.05 175.625 188.05 178.97C188.05 182.315 185.82 184.545 182.475 184.545Z" fill="white"/>
</g>
<defs>
<clipPath id="clip0_14_92">
<rect width="220" height="184" fill="white"/>
</clipPath>
</defs>
</svg>
