<svg width="191" height="180" viewBox="0 0 191 180" fill="none" xmlns="http://www.w3.org/2000/svg">
<g clip-path="url(#clip0_14_54)">
<path d="M22.2833 156.046C9.99885 156.046 0 165.427 0 176.952C0 178.603 1.42295 179.938 3.18333 179.938H41.3833C43.1437 179.938 44.5667 178.603 44.5667 176.952C44.5667 165.427 34.5678 156.046 22.2833 156.046ZM6.68818 173.965C7.95515 168.126 12.8766 163.539 19.1 162.347V167.992H25.4667V162.347C31.6901 163.542 36.6115 168.126 37.8785 173.965H6.68818Z" fill="white"/>
<path d="M187.817 129.167H182.233C182.058 128.752 181.877 128.339 181.679 127.924L185.63 124.218C186.874 123.05 186.874 121.163 185.63 119.995L172.126 107.326C171.467 106.708 170.598 106.439 169.735 106.478C174.781 103.966 178.267 99.0472 178.267 93.3279V15.6772C178.267 7.44325 171.126 0.744385 162.35 0.744385H15.9167C7.14022 0.744385 0 7.44325 0 15.6772V93.3279C0 101.562 7.14022 108.261 15.9167 108.261H57.4592L45.4325 129.167H44.5667H39.7917C33.6478 129.167 28.65 133.856 28.65 139.62C28.65 145.384 33.6478 150.073 39.7917 150.073H108.233C108.233 151.724 109.656 153.059 111.417 153.059H117C117.175 153.474 117.357 153.886 117.554 154.302L113.604 158.008C112.359 159.176 112.359 161.063 113.604 162.231L127.107 174.9C128.352 176.068 130.364 176.068 131.609 174.9L135.559 171.194C136.002 171.379 136.441 171.549 136.883 171.713V176.952C136.883 178.603 138.306 179.938 140.067 179.938H159.167C160.927 179.938 162.35 178.603 162.35 176.952V171.713C162.792 171.549 163.232 171.379 163.674 171.194L167.625 174.9C168.869 176.068 170.881 176.068 172.126 174.9L185.63 162.231C186.874 161.063 186.874 159.176 185.63 158.008L181.679 154.302C181.877 153.886 182.058 153.474 182.233 153.059H187.817C189.577 153.059 191 151.724 191 150.073V132.153C191 130.502 189.577 129.167 187.817 129.167ZM6.36667 15.6772C6.36667 10.7374 10.6514 6.71751 15.9167 6.71751H162.35C167.615 6.71751 171.9 10.7374 171.9 15.6772V78.3951H6.36667V15.6772ZM15.9167 102.288C10.6514 102.288 6.36667 98.2677 6.36667 93.3279V84.3682H171.9V93.3279C171.9 98.2677 167.615 102.288 162.35 102.288H159.167H140.067H115.472H62.7944H15.9167ZM167.583 107.365L163.674 111.032C163.232 110.847 162.792 110.677 162.35 110.513V108.261C164.193 108.261 165.934 107.908 167.583 107.365ZM136.883 108.261V110.513C136.441 110.677 136.002 110.847 135.559 111.032L132.605 108.261H136.883ZM126.108 108.261L123.364 110.835L121.495 108.261H126.108ZM108.233 144.1H39.7917C37.159 144.1 35.0167 142.09 35.0167 139.62C35.0167 137.15 37.159 135.14 39.7917 135.14H44.5667H47.3298H108.233V144.1ZM52.6667 129.164L64.6917 108.261H113.791L118.783 115.133L113.604 119.992C112.359 121.16 112.359 123.047 113.604 124.215L117.554 127.921C117.357 128.336 117.175 128.749 117 129.164H111.417H52.6667ZM184.633 147.086H179.989C178.598 147.086 177.372 147.931 176.952 149.174C176.468 150.616 175.816 152.086 175.01 153.531C174.367 154.69 174.599 156.103 175.583 157.025L178.881 160.119L169.879 168.565L166.581 165.471C165.594 164.549 164.091 164.333 162.856 164.934C161.315 165.689 159.749 166.302 158.212 166.756C156.884 167.153 155.983 168.303 155.983 169.608V173.965H143.25V169.608C143.25 168.303 142.349 167.153 141.025 166.759C139.487 166.305 137.921 165.692 136.38 164.937C135.145 164.336 133.64 164.552 132.656 165.474L129.358 168.568L120.355 160.122L123.653 157.028C124.637 156.105 124.869 154.693 124.226 153.534C123.421 152.089 122.768 150.619 122.285 149.177C121.861 147.931 120.636 147.086 119.244 147.086H114.6V135.14H119.244C120.636 135.14 121.861 134.295 122.281 133.052C122.765 131.61 123.418 130.14 124.223 128.695C124.866 127.536 124.634 126.123 123.65 125.201L120.352 122.106L129.355 113.66L132.653 116.755C133.636 117.68 135.142 117.895 136.377 117.292C137.918 116.536 139.484 115.924 141.022 115.47C142.349 115.073 143.25 113.923 143.25 112.618V108.261H155.983V112.618C155.983 113.923 156.884 115.073 158.208 115.467C159.746 115.921 161.312 116.534 162.853 117.289C164.088 117.892 165.591 117.677 166.577 116.752L169.875 113.657L178.878 122.103L175.58 125.198C174.596 126.12 174.364 127.533 175.007 128.692C175.812 130.137 176.465 131.607 176.949 133.049C177.372 134.295 178.598 135.14 179.989 135.14H184.633V147.086Z" fill="white"/>
<path d="M149.617 123.194C139.083 123.194 130.517 131.23 130.517 141.113C130.517 150.996 139.083 159.032 149.617 159.032C160.15 159.032 168.717 150.996 168.717 141.113C168.717 131.23 160.15 123.194 149.617 123.194ZM149.617 153.059C142.594 153.059 136.883 147.701 136.883 141.113C136.883 134.525 142.594 129.167 149.617 129.167C156.639 129.167 162.35 134.525 162.35 141.113C162.35 147.701 156.639 153.059 149.617 153.059Z" fill="white"/>
<path d="M62.734 23.7618L58.2327 19.5388L35.9494 40.4448C34.7047 41.6125 34.7047 43.5 35.9494 44.6678L58.2327 65.5737L62.734 61.3507L42.7012 42.5563L62.734 23.7618Z" fill="white"/>
<path d="M132.767 40.4448L110.484 19.5388L105.983 23.7618L126.015 42.5563L105.983 61.3507L110.484 65.5737L132.767 44.6678C134.012 43.5 134.012 41.6125 132.767 40.4448Z" fill="white"/>
<path d="M95.8243 11.3716L67.1826 65.1141L72.877 67.7853L101.519 14.0428L95.8243 11.3716Z" fill="white"/>
<path d="M130.517 60.4757H124.15V66.4488H130.517V60.4757Z" fill="white"/>
<path d="M143.25 60.4757H136.883V66.4488H143.25V60.4757Z" fill="white"/>
<path d="M155.983 60.4757H149.617V66.4488H155.983V60.4757Z" fill="white"/>
</g>
<defs>
<clipPath id="clip0_14_54">
<rect width="191" height="179.194" fill="white" transform="translate(0 0.744385)"/>
</clipPath>
</defs>
</svg>
