<svg width="208" height="208" viewBox="0 0 208 208" fill="none" xmlns="http://www.w3.org/2000/svg">
<path d="M116.191 102.074V102.325C116.211 102.242 116.211 102.157 116.191 102.074ZM116.191 102.074V102.325C116.211 102.242 116.211 102.157 116.191 102.074Z" fill="white"/>
<path d="M199.603 102.074C199.99 99.5246 200.184 96.9493 200.181 94.3704C200.138 84.1256 197.07 74.1218 191.361 65.6146C185.653 57.1074 177.559 50.4759 168.095 46.5525C158.631 42.6291 148.219 41.5887 138.166 43.5618C128.113 45.5349 118.867 50.4336 111.588 57.643C105.495 55.2315 98.9971 54.009 92.4445 54.0415C88.4111 54.0376 84.391 54.503 80.4652 55.4282L61.5334 6.22081V6.04747C61.1042 5.14085 60.3382 4.43742 59.3984 4.08677C58.4586 3.73612 57.4191 3.76591 56.5009 4.1698C55.5828 4.5737 54.8584 5.31984 54.4818 6.24955C54.1052 7.17926 54.1062 8.2192 54.4845 9.14822L75.4578 56.8727C75.395 56.6573 75.2829 56.4594 75.1304 56.2949L33.8385 5.43118L33.7422 5.29636C33.4071 4.91699 33.0006 4.60734 32.5458 4.38508C32.091 4.16283 31.5969 4.03233 31.0917 4.00103C30.5865 3.96973 30.08 4.03825 29.6013 4.20268C29.1225 4.3671 28.6809 4.62421 28.3015 4.95933C27.5353 5.63612 27.0694 6.58956 27.0062 7.60989C26.9749 8.11511 27.0434 8.62155 27.2078 9.10029C27.3722 9.57903 27.6293 10.0207 27.9645 10.4001L70.7393 58.7601C68.8606 59.6069 67.0341 60.5651 65.2696 61.6297C53.5229 61.6318 42.1283 65.6407 32.968 72.9942C23.8077 80.3477 17.4296 90.6058 14.8874 102.074H7.70372H3.85187V105.926C3.86297 122.484 9.3451 138.574 19.4457 151.695C29.5463 164.815 43.6993 174.23 59.7037 178.476V188.741C59.7037 197.677 63.5556 204.148 69.0637 204.148H138.936C144.367 204.148 148.296 197.677 148.296 188.741V178.476C164.301 174.23 178.454 164.815 188.554 151.695C198.655 138.574 204.137 122.484 204.148 105.926V102.074H199.603ZM148.296 50.209C160.001 50.2394 171.218 54.9013 179.496 63.1761C187.775 71.4508 192.441 82.6657 192.477 94.3704C192.486 96.9535 192.261 99.532 191.803 102.074H185.447C187.025 94.4 186.192 86.4258 183.063 79.2434C179.933 72.0611 174.66 66.0216 167.965 61.952C161.27 57.8825 153.481 55.9818 145.665 56.5102C137.848 57.0386 130.385 59.9702 124.299 64.9038C122.596 63.5898 120.815 62.3806 118.964 61.283C127.065 54.1392 137.496 50.201 148.296 50.209ZM148.296 70.3734C143.222 70.3767 138.28 71.9882 134.179 74.9764C132.949 73.2877 131.604 71.6854 130.154 70.1808C135.376 66.2327 141.75 64.1081 148.296 64.1334C152.921 64.1424 157.482 65.2102 161.631 67.2549C165.779 69.2996 169.404 72.2669 172.228 75.9294C175.052 79.5919 177 83.8524 177.923 88.3842C178.846 92.9161 178.718 97.599 177.551 102.074H171.022C171.872 99.595 172.302 96.9912 172.293 94.3704C172.278 88.0107 169.745 81.9158 165.248 77.4188C160.751 72.9218 154.656 70.3887 148.296 70.3734ZM164.59 94.3704C164.6 97.0588 163.938 99.707 162.664 102.074H144.252C143.727 94.8688 141.693 87.8544 138.282 81.486C141.141 79.2526 144.668 78.0452 148.296 78.0578C152.615 78.0781 156.75 79.8039 159.802 82.8593C162.854 85.9146 164.574 90.0521 164.59 94.3704ZM82.9111 62.766C86.073 62.0662 89.3024 61.7174 92.5408 61.726C98.9131 61.7042 105.212 63.085 110.991 65.7704C114.974 67.5727 118.657 69.976 121.911 72.8964C130.359 80.3771 135.595 90.8287 136.529 102.074H130.27C129.302 92.7164 124.9 84.0497 117.913 77.7497C110.926 71.4497 101.852 67.9638 92.4445 67.966C91.6934 67.966 90.9808 67.966 90.3259 67.966C87.5989 66.4847 84.7433 65.2535 81.7941 64.2875C81.043 64.0371 80.2919 63.806 79.5215 63.5941C80.6385 63.3053 81.7748 63.0164 82.9111 62.766ZM116.23 102.325V102.074C115.82 100.207 115.292 98.367 114.65 96.566L114.496 96.2964C112.26 91.2012 108.324 87.0406 103.36 84.5255C98.397 82.0104 92.7142 81.2969 87.283 82.5067C84.9567 80.8692 82.4493 79.5056 79.8104 78.443C82.9913 76.988 86.3982 76.089 89.883 75.7852H89.9985C90.7496 75.7852 91.5585 75.7852 92.483 75.7852C99.8232 75.7861 106.913 78.4519 112.436 83.2872C117.958 88.1225 121.538 94.7984 122.508 102.074H116.191C116.224 102.153 116.237 102.239 116.23 102.325ZM108.218 102.074H101.708C100.306 97.602 98.0641 93.4382 95.1022 89.806C97.7667 90.2602 100.279 91.3617 102.418 93.0139C104.557 94.6661 106.258 96.8183 107.37 99.2815C107.602 99.9749 107.833 100.668 108.025 101.362C108.102 101.593 108.16 101.824 108.218 102.074ZM76.8252 92.4445C71.2479 89.4641 64.7202 88.8036 58.659 90.6064C52.5977 92.4093 47.4921 96.53 44.4504 102.074H37.5171C39.8013 96.5358 43.6782 91.8003 48.6566 88.4677C53.635 85.1351 59.4906 83.3554 65.4815 83.3541C66.9109 83.3547 68.3389 83.4447 69.7571 83.6238C69.8659 83.6346 69.9756 83.6346 70.0845 83.6238C75.2491 84.4213 80.1203 86.5387 84.2266 89.771C88.3328 93.0034 91.535 97.2412 93.523 102.074H86.6667C84.3919 97.976 80.9719 94.6296 76.8252 92.4445ZM77.0371 102.074H53.9259C55.4415 100.553 57.2424 99.3463 59.2253 98.5228C61.2083 97.6993 63.3343 97.2754 65.4815 97.2754C67.6287 97.2754 69.7547 97.6993 71.7377 98.5228C73.7206 99.3463 75.5215 100.553 77.0371 102.074ZM42.9674 75.4964C49.8743 71.6786 57.5931 69.5657 65.4815 69.3334C67.6339 69.3537 69.7827 69.5146 71.9141 69.8149C73.7602 70.0909 75.5871 70.4832 77.3837 70.9897C74.5106 72.2618 71.8065 73.8856 69.3334 75.8238C68.1008 75.7082 66.8296 75.6504 65.4815 75.6504C57.4362 75.6577 49.6012 78.2209 43.1072 82.9702C36.6132 87.7196 31.7962 94.4093 29.3511 102.074H22.803C25.7625 90.9053 33.0084 81.3547 42.9674 75.4964ZM129.037 173.333H100.148V181.037H140.593V188.741C140.837 191.452 140.159 194.167 138.667 196.445H69.3334C67.8413 194.167 67.1626 191.452 67.4074 188.741V181.037H77.0371V173.333C60.1622 172.849 44.0833 166.051 31.9797 154.282C19.8761 142.514 12.6289 126.632 11.6711 109.778H196.348C195.365 126.963 187.844 143.121 175.328 154.938C162.813 166.755 146.25 173.337 129.037 173.333Z" fill="white"/>
<path d="M116.23 102.324V102.074C115.82 100.207 115.292 98.3669 114.65 96.5659C115.404 98.3262 115.922 100.178 116.191 102.074C116.224 102.153 116.237 102.239 116.23 102.324Z" fill="white"/>
<path d="M92.4445 177.108C92.4445 174.981 90.72 173.256 88.5926 173.256C86.4653 173.256 84.7408 174.981 84.7408 177.108C84.7408 179.236 86.4653 180.96 88.5926 180.96C90.72 180.96 92.4445 179.236 92.4445 177.108Z" fill="white"/>
</svg>
