<svg width="225" height="225" viewBox="0 0 225 225" fill="none" xmlns="http://www.w3.org/2000/svg">
<path d="M203.906 28.125H21.0938C9.44297 28.125 0 37.568 0 49.2188V161.719C0 173.37 9.44297 182.812 21.0938 182.812H84.375V203.906H73.8281C71.8875 203.906 70.3125 205.481 70.3125 207.422C70.3125 209.363 71.8875 210.938 73.8281 210.938H151.172C153.113 210.938 154.688 209.363 154.688 207.422C154.688 205.481 153.113 203.906 151.172 203.906H140.625V182.812H203.906C215.557 182.812 225 173.37 225 161.719V49.2188C225 37.568 215.557 28.125 203.906 28.125ZM133.594 203.906H91.4062V182.812H133.594V203.906ZM217.969 161.719C217.969 169.488 211.676 175.781 203.906 175.781H21.0938C13.3242 175.781 7.03125 169.488 7.03125 161.719V49.2188C7.03125 41.4492 13.3242 35.1562 21.0938 35.1562H203.906C211.676 35.1562 217.969 41.4492 217.969 49.2188V161.719ZM181.441 63.4922C175.943 62.4094 171.07 65.6016 169.397 70.3125H126.562V63.2812H98.4375V70.3125H55.6031C53.9297 65.6016 49.05 62.4094 43.5586 63.4922C39.5297 64.2867 36.2461 67.5141 35.4023 71.5359C33.9609 78.3633 39.1289 84.375 45.7031 84.375C50.2875 84.375 54.1547 81.4289 55.6031 77.3438H98.4375V78.9188C67.5844 85.2258 43.9805 111.67 42.2859 143.93C42.1805 145.948 43.7836 147.656 45.8086 147.656C47.6578 147.656 49.2117 146.222 49.3031 144.373C50.7727 115.791 71.3391 92.2711 98.4375 86.0906V91.4062H126.562V86.0836C153.661 92.2711 174.227 115.791 175.697 144.366C175.795 146.222 177.342 147.656 179.191 147.656C181.216 147.656 182.82 145.948 182.714 143.93C181.02 111.67 157.416 85.2258 126.562 78.9188V77.3438H169.397C170.852 81.4289 174.712 84.375 179.297 84.375C185.871 84.375 191.039 78.3633 189.605 71.5359C188.754 67.5141 185.47 64.2867 181.441 63.4922ZM45.7031 77.3438C43.7625 77.3438 42.1875 75.7687 42.1875 73.8281C42.1875 71.8875 43.7625 70.3125 45.7031 70.3125C47.6437 70.3125 49.2188 71.8875 49.2188 73.8281C49.2188 75.7687 47.6437 77.3438 45.7031 77.3438ZM119.531 84.375H105.469V70.3125H119.531V84.375ZM179.297 77.3438C177.356 77.3438 175.781 75.7687 175.781 73.8281C175.781 71.8875 177.356 70.3125 179.297 70.3125C181.238 70.3125 182.812 71.8875 182.812 73.8281C182.812 75.7687 181.238 77.3438 179.297 77.3438Z" fill="white"/>
</svg>
