<svg width="198" height="198" viewBox="0 0 198 198" fill="none" xmlns="http://www.w3.org/2000/svg">
<g clip-path="url(#clip0_14_84)">
<path d="M118.045 7.58586L69.7826 187.642L84.744 191.652L132.982 11.5954L118.058 7.57349L118.045 7.58586ZM48.3739 50.0816L7.40026 88.3204C5.84624 89.7571 4.60622 91.4998 3.75814 93.4388C2.91006 95.3779 2.47226 97.4714 2.47226 99.5878C2.47226 101.704 2.91006 103.798 3.75814 105.737C4.60622 107.676 5.84624 109.419 7.40026 110.855L47.619 149.106L59.0164 138.588L17.919 99.6064L59.0164 61.0954L48.3739 50.0816ZM195.55 88.3327L154.589 50.0816L143.934 61.3429L185.019 99.594L143.934 138.093L155.319 148.611L195.55 110.868C197.1 109.429 198.338 107.686 199.183 105.747C200.029 103.808 200.466 101.715 200.466 99.6002C200.466 97.4849 200.029 95.3923 199.183 93.4535C198.338 91.5147 197.1 89.7714 195.55 88.3327Z" fill="white"/>
</g>
<defs>
<clipPath id="clip0_14_84">
<rect width="198" height="198" fill="white"/>
</clipPath>
</defs>
</svg>
