<svg width="240" height="240" viewBox="0 0 240 240" fill="none" xmlns="http://www.w3.org/2000/svg">
<g clip-path="url(#clip0_14_109)">
<path d="M26.5539 188.96H213.531C231.12 188.96 240 180.166 240 162.829V81.5607C240 64.1397 231.12 55.345 213.531 55.345H26.5539C8.87957 55.345 0 64.1397 0 81.5607V162.829C0 180.25 8.87957 188.96 26.5539 188.96ZM26.8076 175.345C18.351 175.345 13.6153 170.863 13.6153 162.068V82.3218C13.6153 73.5267 18.351 68.9598 26.8076 68.9598H213.278C221.65 68.9598 226.385 73.5267 226.385 82.3218V162.068C226.385 170.863 221.65 175.345 213.278 175.345H26.8076ZM198.479 101.434H204.483C206.936 101.434 208.034 100.334 208.034 97.882V91.8777C208.034 89.5098 206.936 88.3261 204.483 88.3261H198.479C196.026 88.3261 194.927 89.5098 194.927 91.8777V97.882C194.927 100.334 196.026 101.434 198.479 101.434ZM171.248 101.434H177.252C179.705 101.434 180.889 100.334 180.889 97.882V91.8777C180.889 89.5098 179.705 88.3261 177.252 88.3261H171.248C168.88 88.3261 167.695 89.5098 167.695 91.8777V97.882C167.695 100.334 168.88 101.434 171.248 101.434ZM144.017 101.434H150.106C152.473 101.434 153.658 100.334 153.658 97.882V91.8777C153.658 89.5098 152.473 88.3261 150.106 88.3261H144.017C141.649 88.3261 140.466 89.5098 140.466 91.8777V97.882C140.466 100.334 141.649 101.434 144.017 101.434ZM116.871 101.434H122.876C125.328 101.434 126.427 100.334 126.427 97.882V91.8777C126.427 89.5098 125.328 88.3261 122.876 88.3261H116.871C114.419 88.3261 113.319 89.5098 113.319 91.8777V97.882C113.319 100.334 114.419 101.434 116.871 101.434ZM89.6409 101.434H95.7296C98.0974 101.434 99.2816 100.334 99.2816 97.882V91.8777C99.2816 89.5098 98.0974 88.3261 95.7296 88.3261H89.6409C87.273 88.3261 86.0889 89.5098 86.0889 91.8777V97.882C86.0889 100.334 87.273 101.434 89.6409 101.434ZM62.4103 101.434H68.499C70.8669 101.434 72.051 100.334 72.051 97.882V91.8777C72.051 89.5098 70.8669 88.3261 68.499 88.3261H62.4103C60.0424 88.3261 58.8583 89.5098 58.8583 91.8777V97.882C58.8583 100.334 60.0424 101.434 62.4103 101.434ZM35.2641 101.434H41.2684C43.7211 101.434 44.8204 100.334 44.8204 97.882V91.8777C44.8204 89.5098 43.7211 88.3261 41.2684 88.3261H35.2641C32.8119 88.3261 31.7126 89.5098 31.7126 91.8777V97.882C31.7126 100.334 32.8119 101.434 35.2641 101.434ZM89.6409 128.664H95.7296C98.0974 128.664 99.2816 127.48 99.2816 125.113V119.108C99.2816 116.656 98.0974 115.556 95.7296 115.556H89.6409C87.273 115.556 86.0889 116.656 86.0889 119.108V125.113C86.0889 127.48 87.273 128.664 89.6409 128.664ZM116.871 128.664H122.876C125.328 128.664 126.427 127.48 126.427 125.113V119.108C126.427 116.656 125.328 115.556 122.876 115.556H116.871C114.419 115.556 113.319 116.656 113.319 119.108V125.113C113.319 127.48 114.419 128.664 116.871 128.664ZM144.017 128.664H150.106C152.473 128.664 153.658 127.48 153.658 125.113V119.108C153.658 116.656 152.473 115.556 150.106 115.556H144.017C141.649 115.556 140.466 116.656 140.466 119.108V125.113C140.466 127.48 141.649 128.664 144.017 128.664ZM171.248 128.664H177.252C179.705 128.664 180.889 127.48 180.889 125.113V119.108C180.889 116.656 179.705 115.556 177.252 115.556H171.248C168.88 115.556 167.695 116.656 167.695 119.108V125.113C167.695 127.48 168.88 128.664 171.248 128.664ZM62.4103 128.664H68.499C70.8669 128.664 72.051 127.48 72.051 125.113V119.108C72.051 116.656 70.8669 115.556 68.499 115.556H62.4103C60.0424 115.556 58.8583 116.656 58.8583 119.108V125.113C58.8583 127.48 60.0424 128.664 62.4103 128.664ZM198.479 128.664H204.483C206.936 128.664 208.034 127.48 208.034 125.113V119.108C208.034 116.656 206.936 115.556 204.483 115.556H198.479C196.026 115.556 194.927 116.656 194.927 119.108V125.113C194.927 127.48 196.026 128.664 198.479 128.664ZM35.2641 128.664H41.2684C43.7211 128.664 44.8204 127.48 44.8204 125.113V119.108C44.8204 116.656 43.7211 115.556 41.2684 115.556H35.2641C32.8119 115.556 31.7126 116.656 31.7126 119.108V125.113C31.7126 127.48 32.8119 128.664 35.2641 128.664ZM62.4103 155.895H177.252C179.705 155.895 180.889 154.711 180.889 152.343V146.254C180.889 143.887 179.705 142.702 177.252 142.702H62.4103C60.0424 142.702 58.8583 143.887 58.8583 146.254V152.343C58.8583 154.711 60.0424 155.895 62.4103 155.895ZM198.479 155.895H204.483C206.936 155.895 208.034 154.711 208.034 152.343V146.254C208.034 143.887 206.936 142.702 204.483 142.702H198.479C196.026 142.702 194.927 143.887 194.927 146.254V152.343C194.927 154.711 196.026 155.895 198.479 155.895ZM35.2641 155.895H41.2684C43.7211 155.895 44.8204 154.711 44.8204 152.343V146.254C44.8204 143.887 43.7211 142.702 41.2684 142.702H35.2641C32.8119 142.702 31.7126 143.887 31.7126 146.254V152.343C31.7126 154.711 32.8119 155.895 35.2641 155.895Z" fill="white"/>
</g>
<defs>
<clipPath id="clip0_14_109">
<rect width="240" height="240" fill="white"/>
</clipPath>
</defs>
</svg>
