<?xml version="1.0" encoding="utf-8"?>
<!-- Generator: Adobe Illustrator 24.3.0, SVG Export Plug-In . SVG Version: 6.00 Build 0)  -->
<svg version="1.1" id="Слой_1" xmlns="http://www.w3.org/2000/svg" xmlns:xlink="http://www.w3.org/1999/xlink" x="0px" y="0px"
	 viewBox="0 0 283.5 283.5" style="enable-background:new 0 0 283.5 283.5;" xml:space="preserve">
<style type="text/css">
	.st0{display:none;}
	.st1{display:inline;}
	.st2{fill:#FFFFFF;}
</style>
<g class="st0">
	<polygon class="st1" points="120.4,248.6 149.1,248.6 62.4,138.1 150.2,34.9 120.4,34.9 23.9,154.1 23.9,34.9 0,34.9 0,248.6 
		23.9,248.6 23.9,188.2 46.2,159.2 	"/>
	<path class="st1" d="M143,215.4h14.4L107.9,82.1l-8.3,4l-30.7,81.7h14.4l5.4-15.5h31.5L143,215.4z M93.2,139.5l11.3-32.5l11.3,32.5
		H93.2z"/>
	<path class="st1" d="M278.3,165.8c-3.4-7.2-8.4-13.1-14.9-17.8s-14.2-7.6-23.2-8.9c8.7-1.6,16.1-4.5,22.1-8.8
		c6-4.3,10.6-9.7,13.7-16.1c3.1-6.4,4.6-13.6,4.6-21.4c0-12.1-2.4-22.4-7.3-31s-12-15.3-21.6-19.9s-21.2-7-35.1-7H166h-17.3H131
		v213.7h17.6H166h53.2c13.2,0,24.7-2.4,34.3-7.1c9.6-4.7,17-11.4,22.2-20.2c5.1-8.8,7.7-19.1,7.7-30.9v-0.4
		C283.5,181,281.8,173,278.3,165.8z M213.4,68.1c10.5,0,18.4,2.3,23.8,6.8c5.4,4.6,8.1,11.2,8.1,20.1c0,8.9-2.6,15.7-7.6,20.4
		c-5.1,4.7-12.5,7.1-22.2,7.1H166V68.1H213.4z M248,186.1c0,9.2-3,16.4-9,21.5s-15.1,7.7-27.3,7.7H166v-60h49.4
		c7.2,0,13.3,1.2,18.2,3.6s8.5,5.9,10.9,10.4s3.5,9.9,3.5,16.3L248,186.1L248,186.1z"/>
</g>
<g>
	<path class="st2" d="M28.9,59.3h5.7v76.8l105.2-76.8h2.8V65L37.5,141.7v5.7l105.1,75.1v7.4h-2.8L34.6,153.3v76.6h-5.7L28.9,59.3
		L28.9,59.3z"/>
	<path class="st2" d="M65.8,155.9l-1.6,1.6V171l-4.1-0.1v-52.6l32.2-23.9l4.3-2.4l28.6,24.7v99.5l-4.8-0.4v-58.3l-1.6-1.6
		L65.8,155.9L65.8,155.9z M120.5,149.6v-29.7L93.4,95.8l-29.2,24.2v29.7l1.6,1.6h53.2L120.5,149.6z"/>
	<path class="st2" d="M139.7,229.9V59.3h88.1l25.6,25.6v37l-22.7,22.7l22.7,22.7v36.9l-25.6,25.6L139.7,229.9L139.7,229.9z M225,65
		h-76.8l-2.8,2.8v71.1l3,2.8H225l22.7-22.7V87.7L225,65z M223.6,147.4h-75.3l-2.8,2.8v71.1l2.8,2.8h75.3l22.7-22.7v-31.3
		L223.6,147.4z"/>
</g>
<g class="st0">
	<path class="st1" d="M-237.9,57.7h5.8v78.2L-125,57.7h2.9v5.8l-107.1,78.2v5.8l107.2,78.2v5.8h-2.9l-107.1-79.7v79.7h-5.8
		L-237.9,57.7L-237.9,57.7z"/>
	<path class="st1" d="M-192.4,152.1l-1.6,1.6v23.1h-3.2v-61.3l30.8-26.9l2.7-0.7l30.3,27.6v105h-3.2v-66.8l-1.6-1.6L-192.4,152.1
		L-192.4,152.1z M-136.7,147.4v-30.3L-165.4,90l-28.7,27.1v30.3l1.6,1.6h54.2L-136.7,147.4z"/>
	<path class="st1" d="M-124.9,231.4V57.7h89.8L-9,83.8v37.7l-23.2,23.2L-9,167.8v37.6l-26.1,26.1L-124.9,231.4L-124.9,231.4z
		 M-38,63.5h-78.2l-2.9,2.9v72.4l3,2.9H-38l23.2-23.2V86.7L-38,63.5z M-38,147.5h-78.2l-2.9,2.9v72.4l2.9,2.9H-38l23.2-23.2v-31.9
		L-38,147.5z"/>
</g>
<g class="st0">
	<path class="st1" d="M24.7,53.6h11.5v74.6l102.2-74.6h6.8v9.1L39.1,140.1v3.7l106.1,77.4v9.1h-6.9L36.2,154.3v75.9H24.7V53.6z"/>
	<path class="st1" d="M74.2,151.7l-0.7,0.7v17.2h-6.1v-54.9L101.5,90l2.7-2.1l27.5,26.9v98h-6.1v-60.4l-0.7-0.7L74.2,151.7
		L74.2,151.7z M125.5,145.4v-28.3L99.5,92.6l-26,24.6v28.3l0.7,0.7h50.6L125.5,145.4z"/>
	<path class="st1" d="M138.3,230.2l0.1-176.6l93.1-0.4l27.2,27.7v38.9l-22.1,22.1l22.1,22.1V203l-27.3,27.3L138.3,230.2L138.3,230.2
		z M225.8,64h-74.7l-1.4,1.4v70.1l1.5,1.4h74.6l21.4-21.4V85.4L225.8,64z M225.8,149.6h-74.7l-1.4,1.4v67.5l1.4,1.4h74.7l21.4-21.4
		v-29.9L225.8,149.6z"/>
</g>
</svg>
